<?xml version="1.0" encoding="utf-8"?>
<!-- Generator: Adobe Illustrator 19.0.0, SVG Export Plug-In . SVG Version: 6.00 Build 0)  -->
<svg version="1.1" id="Layer_1" xmlns="http://www.w3.org/2000/svg" xmlns:xlink="http://www.w3.org/1999/xlink" x="0px" y="0px"
	 viewBox="0 0 1372.4 361.8" style="enable-background:new 0 0 1372.4 361.8;" xml:space="preserve">
<style type="text/css">
	.st0{fill:#10708D;}
	.st1{fill:#D73830;}
</style>
<g id="XMLID_155_">
	<g id="XMLID_175_">
		<path id="XMLID_176_" d="M856.8,28.4c5.5,0,10.6,1.8,14.7,5c0.5,0.5,0.5,1.2,0.1,1.8c-0.4,0.5-1,0.5-1.6,0.1
			c-3.7-2.8-8.3-4.5-13.2-4.5c-12,0-21.4,9.3-21.4,20.7c0,11.4,9.4,20.7,21.4,20.7c4.9,0,9.5-1.8,13.2-4.6c0.5-0.3,1.2-0.2,1.6,0.3
			c0.4,0.6,0.4,1.2-0.1,1.7c-4,3.1-9.2,5-14.7,5c-13.1-0.1-23.7-10.4-23.7-23.1C833.1,38.8,843.7,28.4,856.8,28.4z"/>
		<path id="XMLID_178_" d="M951.2,29.6v43.7c0,0.8-0.5,1.2-1.1,1.2c-0.8,0-1.2-0.5-1.2-1.2V61.8c-3.6,7.5-10.9,12.7-19.4,12.7
			c-12,0-21.7-10.4-21.7-23.1c0-12.6,9.7-23.1,21.7-23.1c8.5,0,15.8,5.3,19.4,12.7V29.6c0-0.6,0.5-1.2,1.2-1.2
			C950.7,28.4,951.2,29.1,951.2,29.6z M948.9,51.5c0-11.4-8.8-20.6-19.4-20.6s-19.4,9.2-19.4,20.6c0,11.5,8.8,20.7,19.4,20.7
			S948.9,63,948.9,51.5z"/>
		<path id="XMLID_181_" d="M1012.4,9.7c0,0.7-0.6,1.2-1.2,1.2c-3.4,0-5.6,0.8-6.9,2.3c-1.4,1.5-2.2,4.2-2.2,8.7V28h7.9
			c0.7,0,1.1,0.6,1.1,1.2s-0.5,1.2-1.1,1.2h-7.9v42.7c0,0.7-0.6,1.2-1.2,1.2c-0.7,0-1.2-0.6-1.2-1.2V30.5h-7.5
			c-0.7,0-1.2-0.6-1.2-1.2s0.6-1.2,1.2-1.2h7.5v-6.2c0-4.7,0.8-8,2.8-10.3c2.1-2.3,5-3,8.7-3C1011.8,8.5,1012.4,9,1012.4,9.7z"/>
		<path id="XMLID_184_" d="M1046.9,51.5c0.2-12.8,10.1-23.1,22.4-23.1c11.8,0,21.3,9.3,22.1,21.3v0.1V50v0.1
			c-0.1,0.6-0.6,1.1-1.1,1.1h-41v0.3c0,11.3,8.9,20.6,20.1,20.7c7,0,13.1-3.8,16.6-9.4c0.4-0.6,1-0.6,1.7-0.3c0.5,0.3,0.7,1,0.3,1.6
			c-4,6.1-10.8,10.4-18.5,10.4C1057,74.3,1047.1,64.1,1046.9,51.5z M1049.4,48.9h39.7c-1.2-10.3-9.7-18.1-19.8-18.1
			C1059.1,30.9,1050.6,38.7,1049.4,48.9z M1063.8,20.3c0-0.4,0.2-0.8,0.4-1l5.8-8.8c0.8-1.1,1.5-1.7,2.6-1.7c1.8,0,1.4,0.9,1.7,1.4
			s-0.4,1.1-0.9,1.7l-6.7,7.2c-1,1.1-1.3,1-2.3,1.4C1063.9,20.9,1063.8,20.8,1063.8,20.3z"/>
	</g>
	<path id="XMLID_80_" class="st0" d="M404.2,292.3c-59.3,0-108.1-48.9-108.1-108.1V59.9c0-14.6,12.5-27.6,27.6-27.6
		c15.6,0,27.6,13,27.6,27.6v124.2c0,29.6,23.4,53,53,53c30.2,0,54.1-23.4,54.6-53V59.9c0-14.6,11.4-27.6,27-27.6
		c14.6,0,28.1,13,28.1,27.6v124.2C513.8,243.4,463.9,292.3,404.2,292.3z"/>
	<path id="XMLID_72_" class="st0" d="M612.6,254.4c-22.4-22.9-35.9-55.1-35.9-91.5c0-35.4,13.5-66,35.9-91
		C636,47.5,666.2,32.4,702,32.4c34.3,0,65.5,15.1,86.8,39.5c23.4,25,36.4,55.6,36.4,91c0,36.4-13,68.6-36.4,91.5
		c-21.3,24.4-52.5,39.5-86.8,39.5C666.2,293.9,636,278.8,612.6,254.4z M633.4,162.9c0,22.4,6.8,40.5,18.7,55.1
		c13,12.5,30.2,19.2,49.9,19.2c18.2,0,34.8-6.8,47.8-19.2c13-14.6,20.3-32.8,20.3-55.1c0-21.3-7.3-40-20.3-54.1
		C736.9,97.4,720.2,89,702,89c-19.7,0-36.9,8.3-49.9,19.8C640.2,122.8,633.4,141.6,633.4,162.9z"/>
	<path id="XMLID_70_" class="st1" d="M1072.2,134.9L987,336.6c-0.5,1.6-1.6,3.1-2.1,3.6c0,0.5-0.5,0.5-0.5,0.5c-1,1-2.1,2.6-3.1,3.6
		c0,0.5-0.5,0.5-0.5,0.5c-1,1.6-2.1,2.1-3.1,3.1c0,0-0.5,0-0.5,0.5c-1,1-2.1,2.1-3.6,2.6c0,0,0,0-1,0c0,0,0,0,0,0.5
		c-1.6,0-3.1,0.5-4.2,1c-0.5,0-0.5,0-1,0c-2.1,0.5-3.6,0.5-5.2,0.5c-1,0-2.6,0-4.7-0.5c-0.5,0-0.5,0-1,0c-1.6-0.5-2.6-1-4.2-1
		c0-0.5,0-0.5,0-0.5c-1,0-1,0-1,0c-1.6-0.5-2.6-1.6-4.7-2.6c0-0.5-0.5-0.5-0.5-0.5c-1-1-2.1-1.6-3.1-3.1c-0.5,0-0.5,0-1-0.5
		c-0.5-1-1.6-2.6-2.6-3.6c-0.5,0-0.5,0-0.5-0.5c-1-0.5-1.6-2.1-2.1-3.6l-84.2-201.7c-6.2-14,0.5-29.1,15.1-35.4
		c12.5-6.2,28.6,1,34.8,15.1L962,256l60.3-141.4c5.7-14,21.3-21.3,34.8-15.1C1071.7,105.8,1078.5,120.8,1072.2,134.9z"/>
	<path id="XMLID_67_" class="st0" d="M1146.6,254.4c-22.4-22.9-35.9-55.1-35.9-91.5c0-35.4,13.5-66,35.9-91
		c23.4-24.4,53.5-39.5,89.4-39.5c34.3,0,65.5,15.1,86.8,39.5c23.4,25,36.4,55.6,36.4,91c0,36.4-13,68.6-36.4,91.5
		c-21.3,24.4-52.5,39.5-86.8,39.5C1200.1,293.9,1170,278.8,1146.6,254.4z M1167.4,162.9c0,22.4,6.8,40.5,18.7,55.1
		c13,12.5,30.1,19.2,49.9,19.2c18.2,0,34.8-6.8,47.8-19.2c13-14.6,20.3-32.8,20.3-55.1c0-21.3-7.3-40-20.3-54.1
		c-13-11.4-29.6-19.8-47.8-19.8c-19.8,0-36.9,8.3-49.9,19.8C1174.1,122.8,1167.4,141.6,1167.4,162.9z"/>
	<path id="XMLID_65_" class="st0" d="M122.9,32.4c59.3,0,108.1,48.9,108.1,108.1v124.2c0,14.6-12.5,27.6-27.6,27.6
		c-15.6,0-27.6-13-27.6-27.6V140.5c0-29.6-23.4-53-53-53c-30.2,0-54.1,23.4-54.6,53v124.2c0,14.6-11.4,27.6-27,27.6
		c-14.6,0-28.1-13-28.1-27.6V140.5C13.2,81.3,63.1,32.4,122.9,32.4z"/>
</g>
</svg>
